<svg xmlns="http://www.w3.org/2000/svg" width="640" height="120" viewBox="0 0 640 120" fill="none"><g clip-path="url(#clip0_1_2)"><path d="M25.5143 10.7557C38.0761 2.0477 53.4696 -1.57966 68.5977 0.60344C83.7258 2.78654 97.4658 10.6181 107.053 22.5223C103.774 26.8224 99.885 30.6214 95.5097 33.7997C92.4273 35.9274 89.1357 37.7346 85.686 39.1933C85.4403 39.1933 85.4403 39.1933 85.1947 39.4387C84.2557 39.9149 83.1813 40.053 82.1524 39.8297C81.1235 39.6064 80.2031 39.0353 79.546 38.2127C70.95 24.2383 55.723 24.7287 43.443 36.0063C31.4097 47.0397 26.988 63.4647 36.0763 76.7033C45.4097 89.942 62.3553 91.168 76.8457 83.813C91.336 76.458 96.248 62.9743 87.652 50.471C86.6697 49 87.652 47.774 89.1257 47.0377H89.3713C93.2111 45.2894 96.9066 43.24 100.423 40.9087C104.641 37.6414 108.584 34.0335 112.212 30.1213C117.991 40.2338 120.707 51.808 120.029 63.4358C119.351 75.0636 115.309 86.2438 108.393 95.6162C101.478 104.989 91.9877 112.149 81.0773 116.227C70.1669 120.305 58.3065 121.124 46.9391 118.584C35.5718 116.045 25.1874 110.257 17.0493 101.924C8.91121 93.5912 3.37024 83.0728 1.10048 71.6485C-1.16927 60.2243 -0.0699747 48.3866 4.26464 37.5757C8.59925 26.7647 15.981 17.4475 25.5143 10.7557Z" fill="#DE314F"/><path d="M186.872 77.44C183.056 79.2937 178.828 80.1378 174.592 79.8917C172.276 79.9923 169.958 79.7444 167.716 79.1563C166.143 78.6629 164.693 77.8389 163.465 76.7395C162.237 75.6401 161.258 74.2908 160.593 72.782C159.787 70.6681 159.37 68.4253 159.365 66.1627C159.175 64.1255 159.093 62.0796 159.12 60.0337V55.3753C159.365 53.6593 159.611 52.1883 159.856 50.7173C160.087 49.3263 160.588 47.9938 161.33 46.7947C162.028 45.5049 162.941 44.3438 164.03 43.3613C167.31 41.236 171.179 40.2061 175.082 40.4197C178.413 40.391 181.729 40.8875 184.906 41.8907C185.497 42.0906 186.072 42.3365 186.625 42.626L184.906 47.5293C181.749 46.0425 178.324 45.2086 174.836 45.0777C172.901 44.9296 170.959 45.2666 169.187 46.0583C167.936 46.6103 166.901 47.5577 166.24 48.755C164.762 52.4052 164.172 56.3548 164.521 60.2777C164.475 62.3238 164.557 64.3708 164.767 66.4067C164.882 68.0225 165.298 69.6025 165.995 71.065C166.675 72.4636 167.773 73.616 169.137 74.3626C170.501 75.1092 172.064 75.4129 173.608 75.2317C177.536 75.1981 181.433 74.536 185.151 73.2703L186.872 77.44ZM216.59 45.3237C212.159 45.3964 207.831 46.6667 204.064 49V79.155H198.661V24.73L203.818 24.2397V45.0787C206.338 43.0673 209.275 41.6438 212.414 40.912C214.117 40.6035 215.842 40.4394 217.572 40.4217C219.238 40.4073 220.895 40.6555 222.484 41.157C223.801 41.4506 224.999 42.1341 225.922 43.1183C227.912 45.8842 228.789 49.2973 228.378 52.6797V79.1573H222.975V53.6593C222.975 50.4723 222.729 48.511 221.993 47.7753C221.508 46.8828 220.726 46.1886 219.782 45.814C218.753 45.4722 217.674 45.3064 216.59 45.3237ZM272.34 77.195C267.639 79.0042 262.641 79.9188 257.604 79.8917C254.956 79.8699 252.318 79.5408 249.745 78.911C248.179 78.5433 246.73 77.79 245.529 76.7196C244.328 75.6493 243.413 74.2957 242.868 72.782C241.727 68.6331 241.23 64.3335 241.395 60.0337V58.3173C241.395 51.698 242.623 46.7947 245.57 44.098C248.026 41.6463 252.201 40.4207 258.341 40.4207C263.99 40.4207 267.92 41.8916 270.13 44.8333C271.219 46.2585 271.899 47.9538 272.096 49.7367C272.493 51.5887 272.658 53.4827 272.587 55.3753C272.654 57.5849 272.572 59.7964 272.342 61.995C269.395 61.995 266.693 62.24 264.237 62.24H259.078C254.972 62.3199 250.865 62.074 246.798 61.5047C246.493 65.027 247.085 68.5691 248.517 71.8013C249.643 73.0631 251.058 74.0343 252.64 74.632C254.222 75.2298 255.925 75.4365 257.604 75.2347C262.092 75.3366 266.543 74.4144 270.621 72.538L272.34 77.195ZM267.183 57.582V54.64C267.366 53.3835 267.287 52.1025 266.948 50.8785C266.61 49.6544 266.021 48.5142 265.218 47.5303C264.242 46.611 263.077 45.9154 261.805 45.492C260.533 45.0686 259.184 44.9275 257.851 45.0787C256.271 44.8912 254.669 45.0341 253.147 45.4984C251.625 45.9626 250.216 46.7379 249.01 47.7753C247.238 50.7218 246.463 54.1605 246.799 57.582H267.183ZM299.847 45.8153C298.265 45.8852 296.713 46.2676 295.28 46.9407C293.846 47.6137 292.561 48.564 291.497 49.7367V79.1563H286.094V41.1563H290.76L291.252 46.0597C292.139 44.6821 293.311 43.5112 294.69 42.6263C295.444 41.8517 296.369 41.264 297.39 40.9103C298.436 40.6454 299.505 40.4812 300.583 40.42C301.761 40.4764 302.923 40.7248 304.021 41.1553L303.53 46.0587C302.316 45.8378 301.08 45.757 299.847 45.8153ZM327.108 45.8153C323.925 46.0045 320.936 47.4087 318.758 49.738V79.1577H313.6V41.1577H318.267L318.758 46.061C319.559 44.6976 320.649 43.5258 321.951 42.6277C322.825 41.887 323.822 41.3061 324.898 40.9117C325.857 40.6295 326.846 40.4648 327.845 40.4213C329.104 40.4738 330.347 40.7219 331.529 41.1567L331.038 46.06C329.739 45.8481 328.423 45.7671 327.108 45.8153ZM340.125 88.474C341.307 88.9086 342.55 89.1567 343.809 89.2093H345.776C345.966 89.2058 346.152 89.1599 346.322 89.0751C346.492 88.9902 346.641 88.8686 346.758 88.719C347.182 88.5558 347.56 88.292 347.859 87.9504C348.159 87.6087 348.371 87.1994 348.477 86.7577C349.48 84.4556 350.301 82.0784 350.933 79.648L336.197 41.1573H342.092L351.916 69.106L353.389 74.0093L354.863 69.106L363.704 41.1573H369.107L353.144 88.2287C352.637 89.9336 351.548 91.4069 350.067 92.3923C348.586 93.3778 346.807 93.813 345.039 93.6223C342.864 93.758 340.687 93.4235 338.653 92.6417L340.125 88.474ZM395.63 71.5577C399.662 73.9029 404.229 75.1694 408.893 75.235C412.576 75.235 414.787 74.0093 415.278 71.3123C415.599 70.2804 415.765 69.2062 415.769 68.1253C415.768 67.1244 415.602 66.1304 415.278 65.1833C415.004 64.4555 414.483 63.8477 413.804 63.4673C412.837 63.1638 411.853 62.9181 410.857 62.7317C409.399 62.4051 407.923 62.1596 406.437 61.9963C404.717 61.751 402.998 61.2607 401.525 61.0157C400.213 60.6428 398.97 60.0634 397.841 59.2993C396.646 58.4049 395.718 57.2021 395.155 55.82C394.593 54.4379 394.418 52.9286 394.648 51.4543V50.7187C394.473 49.1276 394.722 47.5184 395.369 46.0544C396.016 44.5903 397.039 43.3234 398.333 42.382C402.13 40.4852 406.442 39.8824 410.613 40.6657C413.814 40.7818 416.97 41.4451 419.947 42.627L418.473 47.5303C415.513 46.2204 412.362 45.3927 409.14 45.0787C408.158 45.0787 407.175 44.8333 406.193 44.8333C405.211 44.8333 404.228 45.0787 403.493 45.0787C402.773 45.2539 402.101 45.5891 401.528 46.0593C400.898 46.6478 400.415 47.3756 400.116 48.1844C399.818 48.9932 399.712 49.8606 399.809 50.7173C399.674 51.6601 399.811 52.6218 400.202 53.49C400.594 54.3582 401.224 55.0972 402.019 55.6207C403.729 56.3988 405.554 56.8955 407.423 57.0917C409.387 57.3361 411.106 57.5812 412.58 57.827C413.808 58.0723 415.036 58.3173 416.019 58.5627C417.004 58.9883 417.915 59.5675 418.719 60.2787C419.659 61.3389 420.363 62.5862 420.787 63.9384C421.21 65.2906 421.342 66.717 421.175 68.124C420.929 74.7433 418.228 78.4207 412.824 79.4013C411.284 79.6859 409.724 79.8498 408.158 79.8917C406.439 79.8917 404.965 79.6467 403.491 79.6467C402.155 79.4357 400.84 79.1076 399.561 78.666C397.334 78.0222 395.191 77.117 393.176 75.9693L395.63 71.5577ZM463.661 77.1963C459.039 78.9834 454.126 79.8978 449.171 79.893C446.441 79.8695 443.722 79.5406 441.066 78.9123C439.5 78.5446 438.05 77.7914 436.849 76.721C435.648 75.6506 434.734 74.297 434.189 72.7833C433.048 68.6344 432.551 64.3348 432.716 60.035V58.3187C432.716 51.6993 434.189 46.796 436.891 44.0993C440.544 41.3317 445.096 40.021 449.662 40.422C455.556 40.422 459.486 41.893 461.695 44.8347C462.683 46.315 463.352 47.9849 463.66 49.738C463.935 51.6062 464.099 53.4891 464.151 55.3767C464.217 57.5862 464.135 59.7978 463.905 61.9963C460.958 61.9963 458.257 62.2413 455.801 62.2413H450.643C446.455 62.3195 442.268 62.0737 438.118 61.506C437.866 65.0507 438.544 68.5996 440.082 71.8027C441.192 73.0854 442.604 74.0711 444.191 74.6706C445.778 75.2701 447.489 75.4644 449.17 75.236C453.655 75.313 458.101 74.3919 462.186 72.5393L463.661 77.1963ZM458.749 57.5833V54.64C458.999 52.1084 458.299 49.5742 456.784 47.5303C455.77 46.5914 454.564 45.8854 453.249 45.4619C451.934 45.0384 450.542 44.9076 449.171 45.0787C445.985 44.7905 442.812 45.7582 440.329 47.7753C438.558 50.7218 437.783 54.1605 438.119 57.582L458.749 57.5833ZM491.168 45.8167C487.984 46.0059 484.995 47.41 482.817 49.7393V79.159H477.66V41.159H482.327L482.818 46.0623C483.619 44.6989 484.709 43.5271 486.011 42.629C486.885 41.8883 487.882 41.3074 488.958 40.913C489.917 40.6308 490.906 40.4661 491.905 40.4227C493.164 40.4751 494.407 40.7232 495.589 41.158L495.098 46.0613C493.799 45.8489 492.483 45.7687 491.168 45.8167ZM500.501 41.1587H506.15L516.219 72.2943L517.202 75.2363L517.939 72.2943L527.517 41.1587H533.411L520.64 79.1587H513.518L500.501 41.1587ZM573.198 77.1977C568.497 79.0069 563.499 79.9215 558.462 79.8943C555.813 79.8726 553.176 79.5435 550.603 78.9137C549.037 78.5459 547.588 77.7926 546.387 76.7222C545.186 75.6518 544.271 74.2983 543.726 72.7847C542.585 68.6358 542.088 64.3362 542.253 60.0363V58.32C542.253 51.7007 543.481 46.7973 546.428 44.1007C548.884 41.649 553.059 40.4233 559.199 40.4233C564.848 40.4233 568.777 41.8942 570.988 44.836C572.076 46.2614 572.756 47.9566 572.952 49.7393C573.349 51.5913 573.514 53.4853 573.444 55.378C573.51 57.5876 573.428 59.7991 573.198 61.9977C570.251 61.9977 567.549 62.2427 565.093 62.2427H559.936C555.829 62.3226 551.723 62.0767 547.656 61.5073C547.351 65.0296 547.943 68.5717 549.375 71.804C550.501 73.0659 551.916 74.037 553.498 74.6348C555.08 75.2325 556.783 75.4393 558.462 75.2373C562.95 75.3392 567.401 74.417 571.479 72.5407L573.198 77.1977ZM568.041 57.5847V54.64C568.224 53.3833 568.144 52.1022 567.806 50.8782C567.467 49.6542 566.877 48.514 566.074 47.5303C565.098 46.6109 563.933 45.9153 562.661 45.4919C561.389 45.0685 560.04 44.9275 558.707 45.0787C557.127 44.8912 555.525 45.0342 554.003 45.4984C552.481 45.9626 551.073 46.738 549.866 47.7753C548.095 50.7218 547.32 54.1605 547.656 57.582L568.041 57.5847ZM600.705 45.818C599.123 45.888 597.571 46.2706 596.137 46.9439C594.704 47.6172 593.419 48.5677 592.355 49.7407V79.1603H586.952V41.1603H591.618L592.109 46.0637C592.996 44.6861 594.169 43.5152 595.548 42.6303C596.302 41.8556 597.227 41.2679 598.249 40.9143C599.295 40.6494 600.365 40.4852 601.442 40.424C602.621 40.4804 603.782 40.7287 604.881 41.1593L604.389 46.0627C603.174 45.8403 601.938 45.7568 600.704 45.814L600.705 45.818ZM614.459 71.5603C618.49 73.9039 623.057 75.1689 627.72 75.2333C631.404 75.2333 633.614 74.0077 634.106 71.3107C634.427 70.2787 634.593 69.2045 634.597 68.1237C634.596 67.1227 634.43 66.1288 634.106 65.1817C633.832 64.4538 633.31 63.846 632.632 63.4657C631.665 63.1621 630.681 62.9165 629.685 62.73C628.226 62.4034 626.75 62.1579 625.264 61.9947C623.545 61.7493 621.826 61.259 620.352 61.014C619.041 60.6411 617.797 60.0618 616.668 59.2977C615.474 58.4033 614.546 57.2004 613.983 55.8183C613.421 54.4362 613.245 52.927 613.475 51.4527V50.717C613.3 49.1262 613.549 47.5174 614.196 46.0536C614.843 44.5899 615.865 43.3231 617.159 42.3817C620.956 40.4849 625.268 39.8821 629.439 40.6653C632.64 40.7814 635.796 41.4448 638.773 42.6267L637.299 47.53C634.339 46.22 631.188 45.3923 627.966 45.0783C626.983 45.0783 626.001 44.833 625.019 44.833C624.036 44.833 623.054 45.0783 622.319 45.0783C621.599 45.2536 620.927 45.5888 620.354 46.059C619.724 46.6474 619.24 47.3752 618.942 48.184C618.643 48.9928 618.538 49.8603 618.635 50.717C618.5 51.6598 618.636 52.6215 619.028 53.4897C619.419 54.3579 620.049 55.0969 620.845 55.6203C622.566 56.3674 624.386 56.8628 626.248 57.0913C628.213 57.3358 629.932 57.5809 631.406 57.8267C632.634 58.072 633.862 58.317 634.844 58.5623C635.83 58.9877 636.742 59.5669 637.546 60.2783C638.485 61.3388 639.19 62.5861 639.613 63.9384C640.036 65.2906 640.168 66.7171 640 68.124C639.754 74.7433 637.053 78.4207 631.65 79.4013C630.109 79.6859 628.549 79.8498 626.983 79.8917C625.264 79.8917 623.79 79.6467 622.316 79.6467C620.986 79.4069 619.674 79.0793 618.387 78.666C616.159 78.0222 614.016 77.117 612.001 75.9693L614.459 71.5603Z" fill="black"/></g><defs><clipPath id="clip0_1_2"><rect width="640" height="120" fill="white"/></clipPath></defs></svg>